<?xml version="1.0" standalone="no"?>
<!DOCTYPE svg PUBLIC "-//W3C//DTD SVG 20010904//EN"
 "http://www.w3.org/TR/2001/REC-SVG-20010904/DTD/svg10.dtd">
<svg version="1.0" xmlns="http://www.w3.org/2000/svg"
 width="16.000000pt" height="16.000000pt" viewBox="0 0 16.000000 16.000000"
 preserveAspectRatio="xMidYMid meet">
<metadata>
Created by potrace 1.11, written by Peter Selinger 2001-2013
</metadata>
<g transform="translate(0.000000,16.000000) scale(0.003404,-0.003404)"
fill="#000000" stroke="none">
<path d="M2098 4624 c-2 -1 -23 -5 -48 -9 -534 -73 -975 -290 -1345 -660 -237
-237 -399 -483 -518 -785 -71 -183 -128 -403 -142 -556 -3 -32 -8 -70 -11 -84
-5 -30 -6 -352 0 -395 2 -16 7 -57 10 -90 4 -33 18 -114 31 -180 170 -846 835
-1542 1689 -1769 113 -31 157 -32 211 -7 103 47 145 173 93 277 -32 65 -92 99
-207 119 -19 3 -42 10 -52 16 -11 5 -19 8 -19 5 0 -3 -35 8 -78 23 -521 189
-907 551 -1130 1061 -46 107 -100 290 -117 400 -4 25 -9 54 -11 65 -18 92 -24
343 -10 470 38 355 183 710 404 989 137 174 348 355 541 465 193 111 446 201
636 227 17 2 41 7 55 10 42 10 401 13 460 4 30 -5 73 -11 95 -14 40 -6 73 -12
110 -21 11 -2 40 -9 65 -15 139 -32 370 -131 510 -217 202 -125 383 -288 519
-468 200 -263 319 -545 376 -890 14 -84 14 -419 0 -523 -84 -608 -460 -1146
-1000 -1427 -157 -81 -347 -149 -509 -181 -38 -7 -96 -57 -116 -100 -44 -90
-15 -200 67 -258 58 -41 109 -43 228 -12 250 66 544 203 750 349 145 103 194
145 325 277 224 224 374 444 492 720 62 146 121 341 143 472 3 18 7 44 10 58
48 267 33 623 -40 914 -149 595 -532 1109 -1057 1422 -185 109 -353 182 -563
243 -38 11 -83 22 -99 25 -16 3 -54 10 -85 17 -126 26 -258 37 -453 36 -115 0
-209 -1 -210 -3z"/>
<path d="M2164 3815 c-205 -36 -375 -121 -523 -260 -139 -131 -235 -293 -288
-482 l-27 -98 -1 -615 c0 -569 3 -682 20 -750 51 -196 136 -350 268 -484 109
-110 201 -173 337 -229 122 -50 208 -68 350 -72 266 -9 529 90 726 275 24 23
52 58 60 78 60 137 -36 284 -186 285 -56 0 -90 -17 -166 -83 -122 -104 -259
-151 -424 -146 -139 4 -221 32 -338 114 -77 54 -140 130 -187 225 -62 126 -63
141 -61 778 l2 574 27 78 c88 253 311 415 572 418 79 0 126 -8 207 -36 83 -28
137 -59 208 -121 67 -57 105 -74 167 -74 145 0 244 162 178 291 -36 69 -207
200 -335 256 -185 82 -400 111 -586 78z"/>
</g>
</svg>
